<?xml version="1.0" encoding="utf-8"?>
<!-- Generator: Adobe Illustrator 17.0.0, SVG Export Plug-In . SVG Version: 6.00 Build 0)  -->
<!DOCTYPE svg PUBLIC "-//W3C//DTD SVG 1.1//EN" "http://www.w3.org/Graphics/SVG/1.1/DTD/svg11.dtd">
<svg version="1.1" id="Слой_1" xmlns="http://www.w3.org/2000/svg" xmlns:xlink="http://www.w3.org/1999/xlink" x="0px" y="0px"
	 width="9px" height="15px" viewBox="0 0 9 15" enable-background="new 0 0 9 15" xml:space="preserve">
<g>
	<path fill="#C8DDE5" d="M8.845,7.844l-7.206,6.97c-0.092,0.089-0.232,0.15-0.356,0.15s-0.263-0.06-0.356-0.15l-0.773-0.748
		C0.062,13.976,0,13.856,0,13.722c0-0.12,0.062-0.255,0.155-0.344L6.232,7.5L0.155,1.622C0.062,1.533,0,1.398,0,1.278
		s0.062-0.255,0.155-0.344l0.773-0.748c0.092-0.089,0.232-0.15,0.356-0.15s0.263,0.06,0.356,0.15l7.206,6.97
		C8.938,7.245,9,7.38,9,7.5S8.938,7.755,8.845,7.844z"/>
</g>
</svg>
