<?xml version="1.0" encoding="utf-8"?>
<!-- Generator: Adobe Illustrator 17.0.0, SVG Export Plug-In . SVG Version: 6.00 Build 0)  -->
<!DOCTYPE svg PUBLIC "-//W3C//DTD SVG 1.1//EN" "http://www.w3.org/Graphics/SVG/1.1/DTD/svg11.dtd">
<svg version="1.1" id="Слой_1" xmlns="http://www.w3.org/2000/svg" xmlns:xlink="http://www.w3.org/1999/xlink" x="0px" y="0px"
	 width="15px" height="15px" viewBox="0 0 15 15" enable-background="new 0 0 15 15" xml:space="preserve">
<path fill="#A7A7A7" d="M14.98,13.853l-0.069-0.422c-0.373-2.196-2.02-3.941-4.206-4.451l-0.48-0.108L10.5,8.461
	c0.373-0.598,0.578-1.265,0.578-1.941V3.578C11.078,1.608,9.471,0,7.5,0C5.529,0,3.922,1.608,3.922,3.578V6.52
	c0,0.676,0.206,1.343,0.578,1.941l0.274,0.402L4.294,8.98c-2.186,0.51-3.833,2.255-4.206,4.451L0,13.873v0.49
	C0,14.716,0.284,15,0.637,15h13.725C14.716,15,15,14.716,15,14.353L14.98,13.853z M5.539,10.098h3.922
	c1.941,0,3.627,1.314,4.108,3.196l0.118,0.431H1.314l0.118-0.431C1.912,11.412,3.598,10.098,5.539,10.098z M5.196,3.578
	c0-1.275,1.029-2.304,2.304-2.304s2.304,1.029,2.304,2.304V6.52c0,1.274-1.029,2.304-2.304,2.304S5.196,7.794,5.196,6.52V3.578z"/>
</svg>
